<?xml version="1.0" encoding="UTF-8"?>
<!-- Generator: https://ezgif.com/png-to-svg -->
<svg version="1.1" xmlns="http://www.w3.org/2000/svg" width="634" height="500">
<path d="M0 0 C0.81 2.2 0.81 2.2 1.44 5.12 C1.69 6.21 1.94 7.3 2.2 8.41 C2.59 10.19 2.59 10.19 3 12 C5.95 24.61 9.19 37.81 20 46 C27.99 50.89 38.43 50.87 47.38 48.88 C56.2 46.23 61.26 42.91 65.69 34.71 C70.52 24.72 72.22 14.82 73.67 3.91 C74 2 74 2 75 -1 C155.52 -1 236.04 -1 319 -1 C319.66 5.6 320.32 12.2 321 19 C323.57 29.57 326.42 38.43 335.94 44.44 C345.94 50.15 359.14 51.03 370.25 48.16 C378.31 44.51 382.18 38.35 385.56 30.44 C389.15 20.61 390.96 10.23 393 0 C404.1 -2.36 415.11 -0.43 424.85 5.5 C436.32 13.48 443.35 23.65 446.52 37.24 C447.05 40.27 447.13 43.09 447.13 46.15 C447.14 47.4 447.14 48.65 447.14 49.93 C447.14 51.31 447.14 52.69 447.14 54.07 C447.14 55.53 447.15 57 447.15 58.47 C447.16 62.5 447.16 66.54 447.16 70.57 C447.16 74.92 447.17 79.27 447.18 83.62 C447.19 93.14 447.2 102.65 447.2 112.17 C447.2 118.11 447.21 124.05 447.21 130 C447.22 146.46 447.23 162.92 447.24 179.38 C447.24 180.43 447.24 181.49 447.24 182.57 C447.24 183.63 447.24 184.68 447.24 185.77 C447.24 187.91 447.24 190.05 447.24 192.19 C447.24 193.25 447.24 194.31 447.24 195.41 C447.24 212.59 447.26 229.78 447.29 246.97 C447.31 264.63 447.32 282.28 447.32 299.94 C447.32 309.84 447.33 319.75 447.35 329.66 C447.36 338.1 447.37 346.54 447.36 354.98 C447.36 359.29 447.36 363.59 447.37 367.89 C447.38 371.84 447.38 375.79 447.37 379.74 C447.37 381.16 447.37 382.58 447.38 384 C447.47 399.79 444.75 414.9 433.75 426.94 C423.59 436.12 410.24 440.12 396.8 440.13 C396.09 440.13 395.39 440.14 394.66 440.14 C392.3 440.14 389.93 440.14 387.57 440.14 C385.85 440.14 384.14 440.15 382.43 440.15 C377.72 440.16 373.02 440.16 368.31 440.16 C363.23 440.16 358.16 440.17 353.08 440.18 C341.98 440.19 330.88 440.2 319.78 440.2 C312.85 440.2 305.92 440.21 298.99 440.21 C279.8 440.22 260.6 440.23 241.41 440.24 C240.18 440.24 238.95 440.24 237.69 440.24 C236.46 440.24 235.23 440.24 233.96 440.24 C231.46 440.24 228.97 440.24 226.47 440.24 C225.23 440.24 224 440.24 222.72 440.24 C202.67 440.24 182.62 440.26 162.57 440.29 C141.98 440.31 121.39 440.32 100.8 440.32 C89.24 440.32 77.69 440.33 66.13 440.35 C56.28 440.36 46.44 440.37 36.6 440.36 C31.58 440.36 26.56 440.36 21.54 440.37 C16.94 440.38 12.34 440.38 7.74 440.37 C6.08 440.37 4.42 440.37 2.76 440.38 C-12.82 440.46 -24.52 437.67 -37.75 429.25 C-49.64 417.36 -53.19 402.72 -53.28 386.4 C-53.27 385.03 -53.27 383.66 -53.27 382.29 C-53.27 380.82 -53.28 379.34 -53.28 377.87 C-53.29 373.83 -53.29 369.8 -53.29 365.76 C-53.29 361.4 -53.3 357.04 -53.31 352.69 C-53.33 344.15 -53.33 335.62 -53.33 327.09 C-53.34 320.15 -53.34 313.21 -53.35 306.28 C-53.36 286.59 -53.37 266.9 -53.37 247.22 C-53.37 246.16 -53.37 245.1 -53.37 244.01 C-53.37 242.94 -53.37 241.88 -53.37 240.79 C-53.37 223.58 -53.39 206.38 -53.42 189.18 C-53.45 171.49 -53.46 153.81 -53.46 136.13 C-53.46 126.21 -53.46 116.29 -53.48 106.37 C-53.5 97.92 -53.51 89.48 -53.49 81.03 C-53.49 76.73 -53.49 72.42 -53.5 68.12 C-53.52 64.17 -53.52 60.22 -53.5 56.27 C-53.5 54.85 -53.5 53.43 -53.51 52.01 C-53.63 36.06 -49.36 21.62 -38 10 C-27.77 1.89 -13.08 -4.36 0 0 Z M-10 114 C-10.06 159.25 -10.12 204.5 -10.19 251.12 C-10.21 265.43 -10.24 279.73 -10.27 294.47 C-10.28 307.26 -10.28 307.26 -10.29 320.05 C-10.29 325.76 -10.3 331.46 -10.32 337.17 C-10.34 343.76 -10.34 350.34 -10.34 356.92 C-10.34 360.29 -10.34 363.66 -10.36 367.02 C-10.37 370.63 -10.37 374.23 -10.36 377.84 C-10.37 378.89 -10.38 379.94 -10.39 381.03 C-10.35 386.38 -10.22 390.48 -7 395 C-3.55 397.31 -0.49 397.26 3.59 397.27 C4.58 397.27 4.58 397.27 5.6 397.28 C7.83 397.29 10.07 397.29 12.3 397.29 C13.92 397.3 15.53 397.31 17.14 397.31 C21.59 397.33 26.03 397.34 30.47 397.35 C35.26 397.35 40.05 397.37 44.84 397.39 C54.23 397.42 63.61 397.45 73 397.46 C80.63 397.48 88.26 397.5 95.88 397.52 C97.51 397.52 97.51 397.52 99.17 397.53 C101.38 397.54 103.58 397.54 105.78 397.55 C126.46 397.61 147.15 397.65 167.83 397.7 C185.57 397.73 203.32 397.78 221.06 397.83 C241.66 397.9 262.26 397.95 282.85 398 C285.05 398.01 287.25 398.01 289.45 398.02 C291.07 398.02 291.07 398.02 292.72 398.02 C300.34 398.04 307.96 398.06 315.57 398.09 C324.86 398.12 334.15 398.14 343.44 398.15 C348.17 398.16 352.91 398.17 357.65 398.19 C361.99 398.21 366.33 398.21 370.67 398.21 C372.24 398.22 373.8 398.22 375.37 398.23 C388.93 398.77 388.93 398.77 401 393.69 C416.07 373.43 404.09 343.25 403 114 C266.71 114 130.42 114 -10 114 Z " fill="#989898" transform="translate(116,39)"/>
<path d="M0 0 C19.47 0 38.94 0 59 0 C59 19.47 59 38.94 59 59 C39.53 59 20.06 59 0 59 C0 39.53 0 20.06 0 0 Z " fill="#989898" transform="translate(402,323)"/>
<path d="M0 0 C19.47 0 38.94 0 59 0 C59 19.47 59 38.94 59 59 C39.53 59 20.06 59 0 59 C0 39.53 0 20.06 0 0 Z " fill="#989898" transform="translate(165,324)"/>
<path d="M0 0 C19.8 0 39.6 0 60 0 C60 19.14 60 38.28 60 58 C40.2 58 20.4 58 0 58 C0 38.86 0 19.72 0 0 Z " fill="#989898" transform="translate(283,324)"/>
<path d="M0 0 C19.14 0 38.28 0 58 0 C58 19.47 58 38.94 58 59 C38.86 59 19.72 59 0 59 C0 39.53 0 20.06 0 0 Z " fill="#989898" transform="translate(284,206)"/>
<path d="M0 0 C19.47 0 38.94 0 59 0 C59 19.14 59 38.28 59 58 C39.53 58 20.06 58 0 58 C0 38.86 0 19.72 0 0 Z " fill="#989898" transform="translate(165,206)"/>
<path d="M0 0 C19.14 0 38.28 0 58 0 C58 19.14 58 38.28 58 58 C38.86 58 19.72 58 0 58 C0 38.86 0 19.72 0 0 Z " fill="#989898" transform="translate(402,206)"/>
<path d="M0 0 C5.99 4.57 9.62 9.7 11.13 17.14 C11.85 22.71 11.79 28.31 11.76 33.91 C11.75 36.06 11.76 38.21 11.77 40.36 C11.79 51.31 11.23 60.59 3.5 69 C-2.16 73.26 -7.86 74.79 -14.89 74.41 C-21.35 73.39 -26.22 70.32 -30.15 65.09 C-35.36 57 -34.94 47.42 -34.84 38.16 C-34.81 35.87 -34.82 33.59 -34.82 31.3 C-34.78 20.08 -34.18 10.76 -26.5 2 C-19.74 -3.86 -7.64 -4.34 0 0 Z " fill="#989898" transform="translate(483.5,2)"/>
<path d="M0 0 C1.3 -0.03 2.59 -0.05 3.93 -0.08 C10.51 0.5 14.4 3.38 18.69 8.25 C21.63 12.56 22.8 16.14 22.85 21.32 C22.86 22.12 22.87 22.91 22.88 23.72 C22.88 24.57 22.89 25.42 22.89 26.29 C22.9 27.18 22.9 28.06 22.91 28.97 C22.92 30.84 22.92 32.71 22.93 34.57 C22.94 37.41 22.97 40.24 23 43.08 C23.01 44.9 23.01 46.72 23.02 48.54 C23.03 49.38 23.04 50.22 23.05 51.08 C23.03 57.73 22.05 64.24 17.86 69.59 C11.23 74.94 6.07 76.75 -2.5 76.56 C-8.3 75.92 -13.27 73.77 -17.25 69.44 C-26.1 55.76 -23.65 30.6 -21 15.01 C-19.39 8.56 -15.44 5.06 -10.31 1.25 C-6.74 0.06 -3.77 0.04 0 0 Z " fill="#989898" transform="translate(153.3125,-0.25)"/>
</svg>
