<?xml version="1.0" encoding="UTF-8"?>
<!DOCTYPE svg PUBLIC "-//W3C//DTD SVG 1.1//EN" "http://www.w3.org/Graphics/SVG/1.1/DTD/svg11.dtd">
<svg xmlns="http://www.w3.org/2000/svg" version="1.1" width="6616px" height="6608px" style="shape-rendering:geometricPrecision; text-rendering:geometricPrecision; image-rendering:optimizeQuality; fill-rule:evenodd; clip-rule:evenodd" xmlns:xlink="http://www.w3.org/1999/xlink">
<g><path style="opacity:0.998" fill="#979897" d="M 3237.5,-0.5 C 3284.83,-0.5 3332.17,-0.5 3379.5,-0.5C 3951.93,13.5118 4485.6,163.678 4980.5,450C 5411.02,703.493 5767.52,1036.99 6050,1450.5C 6348.08,1892.63 6529.08,2379.63 6593,2911.5C 6605.75,3022.64 6613.25,3133.97 6615.5,3245.5C 6615.5,3281.17 6615.5,3316.83 6615.5,3352.5C 6605.6,3897.79 6471.1,4410.12 6212,4889.5C 5970.69,5328.12 5646.53,5694.62 5239.5,5989C 4766.81,6325.63 4240.48,6525.63 3660.5,6589C 3559.59,6599.34 3458.59,6605.5 3357.5,6607.5C 3324.17,6607.5 3290.83,6607.5 3257.5,6607.5C 2673.83,6596.26 2130.49,6443.43 1627.5,6149C 1206.61,5898.48 856.445,5571.31 577,5167.5C 269.381,4717.12 83.7148,4219.79 20,3675.5C 8.84216,3573.96 2.00883,3472.3 -0.5,3370.5C -0.5,3326.5 -0.5,3282.5 -0.5,3238.5C 14.1542,2638.11 177.988,2082.45 491,1571.5C 780.254,1107.91 1159.42,736.409 1628.5,457C 2072.21,196.44 2551.21,46.7734 3065.5,8C 3122.94,4.04709 3180.27,1.21376 3237.5,-0.5 Z M 3297.5,580.5 C 3803.66,582.11 4274,711.61 4708.5,969C 5095.1,1202.6 5406.26,1512.1 5642,1897.5C 5875.23,2284.9 6004.9,2704.9 6031,3157.5C 6057.04,3667.98 5949.04,4147.98 5707,4597.5C 5462.65,5039.9 5123.15,5390.4 4688.5,5649C 4260.82,5898.2 3798.99,6023.7 3303,6025.5C 2795.92,6023.29 2326.09,5891.12 1893.5,5629C 1464.82,5363.3 1132.65,5007.8 897,4562.5C 671.735,4126.2 570.068,3662.53 592,3171.5C 620.202,2648.2 782.868,2172.2 1080,1743.5C 1356.21,1352.59 1709.38,1052.76 2139.5,844C 2505.84,670.163 2891.84,582.329 3297.5,580.5 Z"/></g>
<g><path style="opacity:0.998" fill="#979897" d="M 3274.5,1132.5 C 3345.9,1129.77 3412.23,1146.6 3473.5,1183C 3537.53,1225.47 3577.36,1284.63 3593,1360.5C 3597.59,1382.28 3600.59,1404.28 3602,1426.5C 3602.33,1775.83 3602.67,2125.17 3603,2474.5C 3605.06,2644.5 3605.73,2814.5 3605,2984.5C 3604.14,3073.55 3601.47,3162.55 3597,3251.5C 3589.96,3338.62 3562.63,3418.62 3515,3491.5C 3506.15,3503.86 3496.82,3515.86 3487,3527.5C 3334.43,3691.07 3177.93,3851.24 3017.5,4008C 2918.17,4104.67 2818.83,4201.33 2719.5,4298C 2684.92,4329.64 2646.26,4355.3 2603.5,4375C 2499.98,4417.21 2404.98,4403.21 2318.5,4333C 2273.83,4296.67 2241.17,4251.67 2220.5,4198C 2199.5,4132.68 2202.66,4068.52 2230,4005.5C 2247.84,3966.04 2270.84,3930.04 2299,3897.5C 2348.11,3846.39 2397.94,3795.89 2448.5,3746C 2534.3,3662.53 2619.8,3578.7 2705,3494.5C 2763.1,3435.41 2820.1,3375.41 2876,3314.5C 2940.12,3245.61 2982.79,3164.95 3004,3072.5C 3009.05,3049.77 3012.05,3026.77 3013,3003.5C 3016.3,2856.52 3018.3,2709.52 3019,2562.5C 3019.09,2199.83 3019.09,1837.17 3019,1474.5C 3019.18,1411.94 3031.51,1351.94 3056,1294.5C 3080.71,1239.13 3118.88,1195.63 3170.5,1164C 3203.11,1146.29 3237.77,1135.79 3274.5,1132.5 Z"/></g>
</svg>
