<?xml version="1.0" encoding="UTF-8"?>
<svg version="1.1" xmlns="http://www.w3.org/2000/svg" width="4743" height="6930">
<path d="M0 0 C4.71376459 0.00754308 9.42744504 0.00480993 14.14120656 -0.0036037 C60.61792079 -0.08427151 106.99268278 0.98623338 153.37362844 4.06963849 C154.66324483 4.1536189 155.95286123 4.23759931 157.2815569 4.32412457 C273.8035328 11.92592173 389.52371584 28.21309079 576.06112844 70.25713849 C577.04985952 70.50614911 578.0385906 70.75515973 579.05728322 71.01171613 C679.43862306 96.30647157 778.19262139 128.60523885 974.06112844 210.25713849 C975.1147759 210.73779767 976.16842336 211.21845685 977.25399953 211.71368146 C983.70653936 214.66349934 990.14573511 217.64115216 996.57724172 220.63653302 C998.9596643 221.74476856 1001.3431241 222.85037208 1003.72860891 223.95196271 C1022.30783391 232.53561436 1040.69320748 241.4788977 1058.99862844 250.63213849 C1060.00766225 251.13620221 1061.01669606 251.64026593 1062.05630666 252.15960431 C1075.14209745 258.70316671 1088.14365162 265.38748213 1101.06112844 272.25713849 C1102.28364425 272.90536187 1103.5062154 273.55348088 1104.72885305 274.20147443 C1156.61969395 301.7570665 1207.49245128 331.17935483 1257.21884328 362.4705174 C1259.80493381 364.0960981 1262.39549517 365.71428515 1264.98690969 367.33135724 C1283.42610888 378.89881659 1301.44511565 391.12024743 1319.53158742 403.22784162 C1322.22096108 405.02773859 1324.91211077 406.82481029 1327.60824758 408.61456037 C1334.21208477 412.99900974 1340.74899335 417.46972112 1347.24862844 422.00713849 C1348.24402639 422.70105695 1349.23942434 423.3949754 1350.26498586 424.10992169 C1378.63788972 443.90597828 1406.60403172 464.20650265 1434.06112844 485.25713849 C1434.68712941 485.73634748 1435.31313039 486.21555646 1435.95810109 486.70928693 C1439.09148375 489.10812697 1442.21951352 491.51376751 1445.34140188 493.92754865 C1446.59151678 494.89406281 1447.84225021 495.85977713 1449.093355 496.82500958 C1457.91519882 503.63475062 1466.6701074 510.51174416 1475.29599172 517.56841779 C1479.5714809 521.06232578 1483.89166632 524.49056033 1488.24862844 527.88213849 C1493.94997693 532.32743506 1499.48142645 536.94634708 1504.97909719 541.63995099 C1507.80795857 544.05210373 1510.67687966 546.41133847 1513.56112844 548.75713849 C1523.35738509 556.73874847 1532.93417633 564.98389336 1542.51815969 573.21807599 C1544.88491368 575.25083073 1547.25760027 577.27631765 1549.63534719 579.29620099 C1556.34434652 585.0036787 1562.92220385 590.82004741 1569.38925344 596.80010724 C1572.24626783 599.42739094 1575.15412345 601.9860354 1578.08456594 604.53057599 C1585.68983943 611.17391766 1593.10653794 618.03125879 1600.54208547 624.86309552 C1602.0140276 626.21391352 1603.4887058 627.56174822 1604.96347219 628.90948224 C1627.78976813 649.77486148 1627.78976813 649.77486148 1635.83847219 658.09698224 C1637.62625988 659.83449822 1639.43277742 661.4251185 1641.33261281 663.0330174 C1647.83334588 668.70926234 1653.84620421 674.89851821 1659.94003469 681.00323224 C1661.27932079 682.34184336 1662.6187552 683.68030612 1663.95832998 685.01862836 C1666.7545584 687.81338899 1669.54898702 690.60993336 1672.3421343 693.40777326 C1675.90480861 696.97614426 1679.47195441 700.54000613 1683.04046899 704.10253549 C1685.80394844 706.86238447 1688.56502086 709.62463171 1691.3253935 712.38758779 C1692.63904751 713.7019042 1693.95343177 715.01549118 1695.26858884 716.32830358 C1707.68073178 728.72316556 1707.68073178 728.72316556 1712.71406728 734.68989301 C1715.01111272 737.36240277 1717.53739606 739.80088559 1720.06112844 742.25713849 C1723.98153603 746.07272235 1727.64282895 750.0266907 1731.22226125 754.16436505 C1734.36587619 757.7420426 1737.65689154 761.1791881 1740.93612844 764.63213849 C1746.01816552 770.00730291 1751.06114821 775.40601564 1755.98300344 780.92901349 C1758.36506036 783.59763365 1760.77488177 786.23987418 1763.18612844 788.88213849 C1768.1600832 794.35196298 1773.04087454 799.88949789 1777.84237844 805.51104474 C1778.87358673 806.71811162 1779.90483791 807.92514186 1780.93612844 809.13213849 C1781.45586232 809.74073712 1781.97559621 810.34933576 1782.51107961 810.97637677 C1785.54018439 814.51356806 1788.61269147 818.00114903 1791.74862844 821.44463849 C1795.5026202 825.58141653 1799.032593 829.8643508 1802.54550344 834.20635724 C1805.49038204 837.77770847 1808.51842269 841.26916943 1811.56112844 844.75713849 C1816.85128159 850.82754347 1821.99854568 856.99502586 1827.06112844 863.25713849 C1828.47680474 864.98711606 1829.89349923 866.71626086 1831.31112844 868.44463849 C1832.89499541 870.38170228 1834.47827202 872.31924885 1836.06112844 874.25713849 C1836.55129445 874.85687482 1837.04146047 875.45661115 1837.54648 876.0745213 C1845.15504658 885.389507 1852.66949461 894.76918884 1860.06112844 904.25713849 C1860.61445852 904.96660626 1861.16778859 905.67607404 1861.73788625 906.40704083 C1868.71949249 915.36053641 1875.68986233 924.32276283 1882.59140188 933.33819318 C1883.68745927 934.76925815 1884.78464659 936.19945784 1885.8824175 937.6292088 C1899.98770159 956.00673331 1899.98770159 956.00673331 1906.343355 965.02398419 C1909.75911668 969.8653382 1913.28104052 974.62371126 1916.81112844 979.38213849 C1923.49657613 988.41503012 1929.95404206 997.59480722 1936.36386281 1006.8245213 C1937.94400088 1009.08926464 1939.53796553 1011.3432562 1941.13925344 1013.59307599 C1952.820566 1030.04979085 1963.89490436 1046.92045967 1975.05453664 1063.73272443 C1976.9677762 1066.6140555 1978.88508199 1069.49257897 1980.80795461 1072.36749005 C1985.90682113 1079.99088071 1990.93908884 1087.65079108 1995.87362844 1095.38213849 C1996.55884572 1096.45488019 1997.24406301 1097.52762189 1997.95004445 1098.63287091 C2004.41821307 1108.78147628 2010.77888019 1118.99256589 2017.06112844 1129.25713849 C2017.7013091 1130.30176251 2018.34148977 1131.34638654 2019.00106984 1132.42266583 C2056.61139723 1193.86332699 2091.22366494 1256.92235401 2145.47519094 1366.81622052 C2147.07822479 1370.29423146 2148.70596596 1373.75956115 2150.34237844 1377.22198224 C2165.88550677 1410.13763545 2180.28925108 1443.56487936 2194.06112844 1477.25713849 C2194.32113637 1477.8925456 2194.58114431 1478.5279527 2194.84903127 1479.18261456 C2208.82210895 1513.3572746 2221.85315838 1547.93119804 2234.16848928 1582.73608136 C2235.11064436 1585.39698499 2236.05584203 1588.05679761 2237.00106984 1590.71661115 C2268.73459168 1680.1477928 2294.51049535 1771.62595196 2315.06112844 1864.25713849 C2315.30155874 1865.33896405 2315.54198903 1866.42078961 2315.7897051 1867.53539777 C2337.30324485 1964.53894979 2352.29252457 2062.93900211 2368.81112844 2267.63213849 C2368.90001333 2269.49559415 2368.90001333 2269.49559415 2368.99069387 2271.39669538 C2369.39400151 2280.01520113 2369.74682097 2288.63493851 2370.06112844 2297.25713849 C2370.08522912 2297.91644486 2370.10932981 2298.57575124 2370.13416082 2299.25503659 C2371.10970019 2326.23255528 2371.26393438 2353.20152659 2371.24862844 2380.19463849 C2371.24822812 2381.78442832 2371.24822812 2381.78442832 2371.24781972 2383.40633512 C2371.23648458 2419.39528039 2370.8322924 2455.30510088 2369.06112844 2491.25713849 C2368.99796438 2492.55784284 2368.93480031 2493.85854718 2368.86972219 2495.19866681 C2365.2198335 2569.99054104 2358.31221507 2644.59185964 2320.06112844 2927.25713849 C2319.94343351 2927.9642069 2319.82573858 2928.6712753 2319.70447713 2929.39977002 C2311.9657505 2975.84321326 2303.31838191 3022.09339891 2294.06112844 3068.25713849 C2293.92115941 3068.95542768 2293.78119039 3069.65371686 2293.63697988 3070.37316632 C2274.98467622 3163.38340444 2253.30467409 3255.8295993 2126.86302358 3679.28524518 C2124.57277179 3685.77627969 2122.32528597 3692.28133362 2120.09237844 3698.79229474 C2109.98625661 3728.22950944 2099.36969267 3757.45931268 2088.52255422 3786.63116193 C2086.2845013 3792.65124716 2084.05979862 3798.67617856 2081.83847219 3804.70245099 C2047.80062917 3896.94785929 2010.55436013 3988.10765514 1961.1412676 4101.79931378 C1960.00996456 4104.37356038 1958.87996522 4106.94837675 1957.75009328 4109.52325177 C1947.98735992 4131.76311808 1938.08260637 4153.93020038 1927.93361074 4175.99644208 C1925.68294671 4180.89320689 1923.44913347 4185.7974027 1921.22519094 4190.70635724 C1920.91094671 4191.39998868 1920.59670247 4192.09362012 1920.27293569 4192.80827069 C1919.64142504 4194.20232651 1919.00991969 4195.59638473 1918.3784197 4196.99044538 C1911.36154226 4212.47338986 1904.21481716 4227.89271664 1896.98947316 4243.27935529 C1896.02654544 4245.33081552 1895.06470471 4247.38278251 1894.10312063 4249.43487287 C1885.67939935 4267.40967642 1877.16760334 4285.33760226 1868.52987844 4303.21075177 C1866.72368721 4306.95703737 1864.93079643 4310.70955271 1863.1410082 4314.46369672 C1860.7870092 4319.39770194 1858.42426179 4324.32750296 1856.06112844 4329.25713849 C1855.56817281 4330.28661099 1855.07521718 4331.3160835 1854.56732351 4332.37675214 C1841.38904911 4359.85114627 1827.72433253 4387.08481879 1814.08733451 4414.33329523 C1811.49537362 4419.51287708 1808.90639176 4424.69394358 1806.31811327 4429.87536633 C1803.77562173 4434.9649306 1801.23152953 4440.05369248 1798.68616647 4445.14182127 C1797.18514397 4448.14233576 1795.68477499 4451.14317121 1794.18555242 4454.14458585 C1787.99186568 4466.54155478 1781.74394702 4478.90022506 1775.2412737 4491.13839459 C1771.82116224 4497.57680222 1768.51067808 4504.07215859 1765.18676931 4510.56057477 C1755.68896602 4529.09448793 1746.00760892 4547.51783102 1736.15683156 4565.86675763 C1731.41547125 4574.70326749 1726.71948001 4583.56320663 1722.03634816 4592.43069196 C1716.22291249 4603.43761608 1710.38344136 4614.42629611 1704.39413625 4625.3389256 C1701.19859546 4631.16158024 1698.04553208 4637.00559558 1694.90976125 4642.86065412 C1689.38477685 4653.17355556 1683.74957265 4663.40904662 1677.95590383 4673.5733006 C1673.88190013 4680.74426217 1669.95084208 4687.98478521 1666.06112844 4695.25713849 C1661.16403702 4704.40822802 1656.15786747 4713.48531543 1651.02377492 4722.50542951 C1646.83331598 4729.87080411 1642.72148519 4737.27741243 1638.62362844 4744.69463849 C1633.25785394 4754.39579325 1627.74211063 4763.99542687 1622.11996633 4773.5498631 C1618.30696776 4780.05400954 1614.63934099 4786.62123474 1611.06112844 4793.25713849 C1606.39712908 4801.90137307 1601.52834738 4810.40571692 1596.55331594 4818.87432599 C1591.99630311 4826.63517754 1587.51486124 4834.43681715 1583.06112844 4842.25713849 C1576.37112209 4853.99685746 1569.59308155 4865.6831516 1562.76571828 4877.34356427 C1560.49474234 4881.22523527 1558.23073614 4885.11095039 1555.96664602 4888.99664044 C1550.43671395 4898.48561724 1544.89592744 4907.96825861 1539.34594899 4917.4455235 C1538.63179125 4918.6652343 1537.91789019 4919.88509545 1537.2042864 4921.10513043 C1533.00372978 4928.28580234 1528.7627761 4935.43996264 1524.47523671 4942.56899762 C1521.84205515 4946.94915896 1519.22662944 4951.33944792 1516.62362844 4955.73760724 C1516.25529393 4956.35984677 1515.88695943 4956.98208631 1515.50746328 4957.62318158 C1514.75001226 4958.90281343 1513.99257119 4960.18245116 1513.23513967 4961.46209455 C1504.98528132 4975.39356836 1496.63761951 4989.26233605 1488.21077138 5003.08733869 C1484.61712277 5008.98311015 1481.03555657 5014.88619346 1477.45398122 5020.78930402 C1474.9866308 5024.85529901 1472.5174104 5028.9201586 1470.04843313 5032.98516583 C1468.77028134 5035.08956267 1467.49227462 5037.19404764 1466.21444875 5039.2986424 C1453.83694721 5059.68089879 1441.3728609 5080.00822302 1428.70810109 5100.21343732 C1424.09681486 5107.57782954 1419.54089023 5114.97501823 1414.99862844 5122.38213849 C1408.34264144 5133.22830599 1401.54999071 5143.98064 1394.69296438 5154.70049787 C1392.0935043 5158.77314088 1389.51399791 5162.85830665 1386.93612844 5166.94463849 C1386.44709035 5167.71952619 1385.95805227 5168.49441388 1385.45419484 5169.29278302 C1383.98950419 5171.61402361 1382.52523967 5173.9355324 1381.06112844 5176.25713849 C1359.32352918 5210.72592875 1359.32352918 5210.72592875 1348.37191945 5227.59380841 C1345.04475627 5232.72306035 1341.74860966 5237.87159142 1338.4593218 5243.0252049 C1330.11304152 5256.10007042 1321.6567908 5269.09956264 1313.14950734 5282.07012677 C1311.1724881 5285.08719589 1309.19976663 5288.10701277 1307.22909719 5291.12823224 C1302.84834921 5297.8434978 1298.45731412 5304.55197404 1294.06112844 5311.25713849 C1293.31476125 5312.39569287 1293.31476125 5312.39569287 1292.55331594 5313.55724835 C1276.66328278 5337.79136561 1260.62775602 5361.92005981 1244.39276296 5385.92448163 C1243.81023763 5386.78578183 1243.2277123 5387.64708203 1242.62753469 5388.53448224 C1242.05653035 5389.37866208 1241.48552602 5390.22284192 1240.89721853 5391.09260297 C1236.00224578 5398.33401193 1231.14863099 5405.60225565 1226.31112844 5412.88213849 C1218.65459677 5424.39860363 1210.89781139 5435.84458675 1203.10165578 5447.26690412 C1201.08241197 5450.22594912 1199.06555024 5453.18660341 1197.04940969 5456.14776349 C1186.43010668 5471.74170744 1175.7462231 5487.28703691 1164.96371633 5502.7686131 C1161.14549897 5508.25302752 1157.33979668 5513.74540769 1153.56112844 5519.25713849 C1138.87921695 5540.66442073 1123.97281903 5561.92112452 1108.98690969 5583.11651349 C1107.02228977 5585.89518793 1105.06158837 5588.67656269 1103.10409719 5591.46026349 C1097.43071833 5599.52346243 1091.7016518 5607.5427859 1085.91684133 5615.5264256 C1082.26124958 5620.57773918 1078.64773226 5625.65665078 1075.06112844 5630.75713849 C1069.34339646 5638.88511152 1063.53288518 5646.94380211 1057.70224172 5654.99102521 C1054.9846467 5658.74358649 1052.27318371 5662.50057269 1049.56112844 5666.25713849 C1048.47782482 5667.75715995 1047.39449148 5669.25715995 1046.31112844 5670.75713849 C1045.77487844 5671.49963849 1045.23862844 5672.24213849 1044.68612844 5673.00713849 C1043.06112844 5675.25713849 1041.43612844 5677.50713849 1039.81112844 5679.75713849 C1039.00687429 5680.87076764 1039.00687429 5680.87076764 1038.18637258 5682.00689435 C1037.10234427 5683.50779399 1036.01819702 5685.00860771 1034.93393117 5686.50933576 C1032.23525189 5690.24487816 1029.53861532 5693.98186103 1026.84628469 5697.72198224 C1020.71451351 5706.23502378 1014.5324376 5714.7079749 1008.29623586 5723.1448338 C1004.30470522 5728.55110521 1000.35909502 5733.98846392 996.43612844 5739.44463849 C991.90954988 5745.735827 987.31080983 5751.96577752 982.64608938 5758.15508771 C978.79356673 5763.26955687 974.98151411 5768.4126418 971.18612844 5773.56963849 C970.59952443 5774.36635968 970.01292043 5775.16308087 969.40854055 5775.98394513 C966.47597912 5779.96903578 963.5476679 5783.95719749 960.62362844 5787.94854474 C953.85408612 5797.1778994 946.98595095 5806.32285758 940.02914602 5815.41192365 C935.58170525 5821.23248284 931.20355565 5827.09873069 926.87362844 5833.00713849 C920.957681 5841.07615189 914.9145284 5849.03860261 908.81649953 5856.9705174 C905.53420473 5861.2461743 902.26622912 5865.53274724 898.99862844 5869.81963849 C898.3183257 5870.71191144 897.63802297 5871.60418439 896.937105 5872.52349591 C892.91025319 5877.81104122 888.91112808 5883.11804511 884.93612844 5888.44463849 C880.1349477 5894.87637815 875.22087845 5901.21475258 870.27816945 5907.53814435 C866.41825895 5912.48550375 862.62297549 5917.47557105 858.87362844 5922.50713849 C854.68072718 5928.13248754 850.40794467 5933.68433825 846.05771047 5939.18877912 C842.679852 5943.46295263 839.34770888 5947.77016006 836.03231984 5952.09307599 C830.68565442 5959.05849476 825.28367688 5965.9809283 819.88876516 5972.90899396 C818.07126246 5975.24411832 816.25537056 5977.58048559 814.44003469 5979.91729474 C807.7808349 5988.48846109 801.10220379 5997.04361263 794.38778859 6005.57159162 C792.11026638 6008.46522676 789.83588836 6011.36133172 787.56112844 6014.25713849 C786.64447614 6015.42381645 785.72780949 6016.59048313 784.81112844 6017.75713849 C784.35737844 6018.33463849 783.90362844 6018.91213849 783.43612844 6019.50713849 C782.06112844 6021.25713849 780.68612844 6023.00713849 779.31112844 6024.75713849 C778.85753957 6025.33447736 778.4039507 6025.91181623 777.93661672 6026.50665021 C777.0184949 6027.67508001 776.10020018 6028.84337397 775.18173391 6030.01153302 C772.91090475 6032.90014355 770.64297897 6035.79093397 768.38144094 6038.68682599 C762.96166433 6045.6190984 757.46098693 6052.4781807 751.89755422 6059.29571271 C748.40605528 6063.58125109 744.96308064 6067.90025233 741.56112844 6072.25713849 C737.07912733 6077.99724517 732.50156287 6083.65407095 727.89706594 6089.29620099 C724.40582664 6093.58165586 720.96298772 6097.90046955 717.56112844 6102.25713849 C712.47514998 6108.76943267 707.27016705 6115.18080219 702.04940969 6121.58526349 C699.70391311 6124.46326303 697.37511297 6127.35369685 695.06112844 6130.25713849 C691.65401025 6134.5321752 688.20256036 6138.76994877 684.74862844 6143.00713849 C680.5886408 6148.11094355 676.48140339 6153.24951549 672.43612844 6158.44463849 C668.47417091 6163.52866134 664.3761065 6168.47075261 660.18344289 6173.36553693 C656.88950905 6177.22920387 653.73503558 6181.18303025 650.62362844 6185.19463849 C646.37063836 6190.67202037 641.94448061 6195.9672525 637.40780813 6201.21124005 C632.85458919 6206.47636293 628.443617 6211.84913158 624.06112844 6217.25713849 C619.32893321 6223.08072288 614.55694746 6228.86186183 609.68612844 6234.56963849 C605.90331313 6239.00575337 602.25580586 6243.52313874 598.68612844 6248.13213849 C594.22998435 6253.87821902 589.54862134 6259.38989882 584.75912648 6264.85992169 C580.86328679 6269.31272433 577.0934024 6273.85031211 573.36972219 6278.44854474 C570.64768753 6281.76012329 567.85973113 6285.01026908 565.06112844 6288.25713849 C561.50655352 6292.38178149 557.99320545 6296.52921753 554.56112844 6300.75713849 C550.62669588 6305.60390324 546.5755827 6310.33993104 542.50033742 6315.06792951 C539.48867834 6318.56949151 536.53053894 6322.10500406 533.62362844 6325.69463849 C529.4834862 6330.79655606 525.18567461 6335.74868767 520.86703664 6340.69903302 C517.6138087 6344.43731196 514.42859819 6348.21640228 511.31112844 6352.06963849 C507.77921757 6356.43296634 504.07405908 6360.59552329 500.29550344 6364.74541974 C498.05978311 6367.25865081 495.92735162 6369.83025328 493.81112844 6372.44463849 C489.13165168 6378.222775 484.26697024 6383.82612805 479.38534719 6389.43291974 C476.25820812 6393.02481794 473.15594077 6396.63738201 470.06112844 6400.25713849 C465.37212223 6405.73834769 460.65503861 6411.19452402 455.92538625 6416.64068341 C452.20033566 6420.93319602 448.50115153 6425.24700629 444.81112844 6429.56963849 C441.38671895 6433.5806135 437.92386116 6437.54368954 434.37362844 6441.44463849 C431.36298365 6444.75796929 428.49547666 6448.14655778 425.68612844 6451.63213849 C422.00411309 6456.18654772 418.13212486 6460.49461414 414.14535695 6464.77837873 C411.17426093 6467.98977256 408.36166256 6471.28323612 405.62362844 6474.69463849 C401.25972385 6480.11622193 396.57691313 6485.18555966 391.83456594 6490.27276349 C387.54131044 6494.87862075 383.43783422 6499.63813919 379.35800344 6504.43291974 C373.53298877 6511.27040231 367.61607973 6517.99009769 361.51815969 6524.58526349 C358.89582583 6527.43689522 356.34124525 6530.3384392 353.80331594 6533.26495099 C351.74612445 6535.61734484 349.65515929 6537.93748815 347.56112844 6540.25713849 C344.87129413 6543.2377657 342.1980248 6546.22959082 339.56112844 6549.25713849 C336.16859751 6553.1522666 332.70918643 6556.98496612 329.24862844 6560.81963849 C327.33558695 6562.9513133 325.44225232 6565.09732959 323.56112844 6567.25713849 C320.16617905 6571.15504334 316.70446959 6574.99060906 313.24081594 6578.82745099 C311.3696775 6580.91320029 309.52188013 6583.01531477 307.68612844 6585.13213849 C304.23261282 6589.09966573 300.67108904 6592.96561489 297.10849172 6596.83477521 C294.55587081 6599.61172532 292.03144639 6602.40677162 289.56112844 6605.25713849 C286.15435494 6609.18803099 282.63110059 6613.00910422 279.10800344 6616.83526349 C276.555577 6619.61207906 274.03129556 6622.40694566 271.56112844 6625.25713849 C268.19654971 6629.13686802 264.72523936 6632.91571358 261.24862844 6636.69463849 C258.33322887 6639.86493638 255.43729766 6643.05108606 252.56112844 6646.25713849 C248.78575627 6650.46398176 244.97132395 6654.63388702 241.14706594 6658.79620099 C238.26690237 6661.93380935 235.4058123 6665.0873479 232.56112844 6668.25713849 C227.90117987 6673.44775735 223.18754569 6678.58826692 218.468355 6683.72491193 C216.16404292 6686.23390961 213.86271752 6688.74564317 211.56112844 6691.25713849 C210.64447652 6692.25715201 209.72780984 6693.257152 208.81112844 6694.25713849 C208.35737844 6694.75213849 207.90362844 6695.24713849 207.43612844 6695.75713849 C206.06112844 6697.25713849 204.68612844 6698.75713849 203.31112844 6700.25713849 C202.857459 6700.75205792 202.40378957 6701.24697736 201.93637258 6701.75689435 C201.01892158 6702.75773517 200.10144108 6703.75854894 199.18393117 6704.75933576 C196.90402293 6707.2462511 194.62461551 6709.73362164 192.34628469 6712.22198224 C186.10384598 6719.03854141 179.84124002 6725.83617932 173.56845266 6732.62481427 C172.0870271 6734.2290921 170.60703851 6735.83468215 169.12753469 6737.44073224 C163.19923214 6743.87415892 157.24436576 6750.2819015 151.27035695 6756.67290998 C147.5395872 6760.66631607 143.82506697 6764.67404595 140.12362844 6768.69463849 C134.40386866 6774.90493713 128.62896586 6781.06272823 122.85019094 6787.21807599 C119.24631108 6791.05743141 115.65242507 6794.90601564 112.06112844 6798.75713849 C110.33195985 6800.61015327 108.60259601 6802.46298557 106.87314016 6804.31573224 C105.61672282 6805.66186949 104.36055513 6807.00823979 103.10458547 6808.35479474 C101.11219263 6810.49008957 99.11808162 6812.62376817 97.12362844 6814.75713849 C96.52099172 6815.40360333 95.918355 6816.05006818 95.29745656 6816.71612287 C92.35626688 6819.8592547 89.38157905 6822.95450125 86.32675344 6825.98760724 C84.02696504 6828.27167223 81.83116574 6830.582943 79.74862844 6833.06963849 C76.98494815 6836.28047604 74.07493248 6839.27981014 71.06112844 6842.25713849 C68.12994652 6845.15305807 65.29709669 6848.0595642 62.62362844 6851.19463849 C59.7594045 6854.54638991 56.69777999 6857.66269588 53.56112844 6860.75713849 C50.48708342 6863.78998337 47.48113625 6866.83653227 44.68612844 6870.13213849 C41.4998339 6873.87257121 38.05232306 6877.30517078 34.56112844 6880.75713849 C29.46530554 6885.79563619 29.46530554 6885.79563619 24.68612844 6891.13213849 C20.59850514 6895.95923132 16.02731769 6900.31474554 11.53695852 6904.76177716 C7.82005543 6908.45650358 4.26961202 6912.20618667 0.88144094 6916.20635724 C-1.73348554 6919.1523581 -4.48278782 6921.95595921 -7.25137156 6924.75713849 C-7.78012889 6925.29878644 -8.30888621 6925.84043439 -8.85366648 6926.39849591 C-10.17646848 6927.72471766 -11.55380852 6928.99607957 -12.93887156 6930.25713849 C-13.59887156 6930.25713849 -14.25887156 6930.25713849 -14.93887156 6930.25713849 C-16.31378455 6928.74926689 -17.61251618 6927.17174088 -18.87637156 6925.56963849 C-19.68203562 6924.56288068 -20.48769969 6923.55612287 -21.31777781 6922.51885724 C-21.7459077 6921.98309064 -22.17403758 6921.44732404 -22.61514109 6920.89532208 C-24.80379403 6918.18675307 -27.05816144 6915.53489861 -29.31387156 6912.88213849 C-29.77318064 6912.34065167 -30.23248973 6911.79916486 -30.70571727 6911.24126935 C-32.11591823 6909.57916802 -33.52722576 6907.9180128 -34.93887156 6906.25713849 C-40.13106178 6900.14825814 -45.32010737 6894.04203208 -50.37637156 6887.81963849 C-54.33395344 6882.95584824 -58.40429603 6878.19832618 -62.49722117 6873.44878888 C-65.52832446 6869.9241493 -68.50872473 6866.36673967 -71.43887156 6862.75713849 C-75.82832974 6857.35350947 -80.35569965 6852.07675394 -84.89590281 6846.80010724 C-89.15507164 6841.84843462 -93.36640018 6836.85647532 -97.57998484 6831.86602521 C-99.86433342 6829.1614156 -102.15176664 6826.45941722 -104.43887156 6823.75713849 C-105.35555282 6822.6738175 -106.27221949 6821.59048417 -107.18887156 6820.50713849 C-107.64262156 6819.97088849 -108.09637156 6819.43463849 -108.56387156 6818.88213849 C-123.68887158 6801.00713847 -123.68887158 6801.00713847 -125.06362742 6799.38238263 C-125.98104953 6798.29818611 -126.89853008 6797.21403904 -127.81606883 6796.12994123 C-130.096657 6793.43521538 -132.37624971 6790.73966037 -134.65371531 6788.04229474 C-135.5611789 6786.96800123 -136.46873116 6785.89378262 -137.37637156 6784.81963849 C-137.82609324 6784.28741681 -138.27581492 6783.75519513 -138.73916453 6783.20684552 C-141.65138336 6779.76532033 -144.58243464 6776.34060193 -147.52285594 6772.92315412 C-151.53052412 6768.26531923 -155.5072877 6763.59410213 -159.37637156 6758.81963849 C-164.53338242 6752.4711161 -169.91831516 6746.32620633 -175.28799266 6740.1580174 C-182.18907154 6732.21187718 -189.00522124 6724.19259975 -195.79482859 6716.15118146 C-199.15812663 6712.17089718 -202.54401826 6708.21052807 -205.93887156 6704.25713849 C-209.79021132 6699.77215929 -213.62513952 6695.27414113 -217.43887156 6690.75713849 C-221.23410883 6686.26304796 -225.04678086 6681.78449582 -228.87637156 6677.31963849 C-229.37306346 6676.7404466 -229.86975535 6676.1612547 -230.38149852 6675.56451154 C-232.93397575 6672.58957808 -235.48957138 6669.61736769 -238.04824656 6666.64776349 C-242.63723067 6661.31593215 -247.19764991 6655.97384179 -251.62637156 6650.50713849 C-255.1815506 6646.12562054 -258.90656693 6641.94003168 -262.70449656 6637.76885724 C-264.94021689 6635.25562617 -267.07264838 6632.6840237 -269.18887156 6630.06963849 C-274.40405672 6623.63001856 -279.85218908 6617.40258446 -285.29238719 6611.15362287 C-289.37059686 6606.45618326 -293.40659724 6601.72230346 -297.45059031 6596.99541974 C-298.95559205 6595.23760931 -300.46254859 6593.48149403 -301.97012156 6591.72588849 C-307.26941582 6585.55346836 -312.54784526 6579.36452778 -317.79678172 6573.14922833 C-323.14365263 6566.82289484 -328.54226988 6560.5410427 -333.93887156 6554.25713849 C-340.2497547 6546.90862781 -346.54691536 6539.54973532 -352.79678172 6532.14922833 C-356.14093341 6528.1924807 -359.50354368 6524.2519635 -362.87637156 6520.31963849 C-363.37306346 6519.7404466 -363.86975535 6519.1612547 -364.38149852 6518.56451154 C-366.93397575 6515.58957808 -369.48957138 6512.61736769 -372.04824656 6509.64776349 C-376.63723067 6504.31593215 -381.19764991 6498.97384179 -385.62637156 6493.50713849 C-389.1815506 6489.12562054 -392.90656693 6484.94003168 -396.70449656 6480.76885724 C-399.72577193 6477.37256343 -402.56463089 6473.84120869 -405.42324656 6470.30791974 C-408.36812105 6466.7365735 -411.39604132 6463.24499362 -414.43887156 6459.75713849 C-418.17302324 6455.47507557 -421.86346261 6451.17382014 -425.43887156 6446.75713849 C-429.51644283 6441.72365308 -433.74393071 6436.8338054 -437.99697703 6431.94903302 C-442.91764806 6426.2944897 -447.76668255 6420.58241763 -452.59609812 6414.84991193 C-454.87308595 6412.14899037 -457.1563295 6409.45336605 -459.43887156 6406.75713849 C-460.3555674 6405.67382984 -461.27223409 6404.59049653 -462.18887156 6403.50713849 C-462.64262156 6402.97088849 -463.09637156 6402.43463849 -463.56387156 6401.88213849 C-472.2722049 6391.59047182 -480.98053823 6381.29880516 -489.68887156 6371.00713849 C-490.1427827 6370.47072736 -490.59669383 6369.93431623 -491.06435984 6369.38165021 C-491.97951569 6368.30004328 -492.89455507 6367.2183378 -493.80947703 6366.13653302 C-496.12330634 6363.4009591 -498.43923627 6360.66721375 -500.75918406 6357.93682599 C-505.00853077 6352.93190869 -509.23567847 6347.91530224 -513.37637156 6342.81963849 C-517.78800211 6337.4014327 -522.33210799 6332.10442999 -526.88809031 6326.80791974 C-533.90916625 6318.64455245 -540.83424415 6310.41050666 -547.63418406 6302.06182599 C-552.00644107 6296.74101153 -556.478943 6291.50447513 -560.93887156 6286.25713849 C-566.90197574 6279.24123799 -572.82405541 6272.20169002 -578.63418406 6265.05791974 C-581.15920231 6261.98938062 -583.73371926 6258.96674037 -586.31387156 6255.94463849 C-590.09679648 6251.50862246 -593.74419893 6246.99113206 -597.31387156 6242.38213849 C-601.76813358 6236.63848484 -606.44816251 6231.12979829 -611.23428172 6225.66094708 C-615.92896485 6220.29299001 -620.45646679 6214.80359076 -624.93887156 6209.25713849 C-626.33338861 6207.5477305 -627.72926384 6205.83942976 -629.12637156 6204.13213849 C-629.86887156 6203.22463849 -630.61137156 6202.31713849 -631.37637156 6201.38213849 C-636.88272529 6194.66192404 -642.41371328 6187.96189039 -647.93887156 6181.25713849 C-655.62028817 6171.93577791 -663.29730809 6162.61121808 -670.93887156 6153.25713849 C-672.43872852 6151.42368813 -673.93873096 6149.59035678 -675.43887156 6147.75713849 C-676.18652781 6146.84319318 -676.93418406 6145.92924787 -677.70449656 6144.98760724 C-679.15184208 6143.21891054 -680.59972457 6141.45065306 -682.04824656 6139.68291974 C-687.56345265 6132.94994004 -693.05529866 6126.19820926 -698.54043406 6119.44073224 C-700.78169759 6116.68002595 -703.0266136 6113.92235849 -705.27480906 6111.16729474 C-710.81935616 6104.36773469 -716.30946505 6097.53442601 -721.70498484 6090.61602521 C-725.37332671 6085.93244494 -729.14468005 6081.33909401 -732.93887156 6076.75713849 C-737.65184588 6071.06563909 -742.2834 6065.32389403 -746.82559031 6059.49541974 C-750.30741133 6055.03624545 -753.86135228 6050.63979618 -757.43887156 6046.25713849 C-761.94588712 6040.73460644 -766.3867174 6035.16744913 -770.7726118 6029.54839826 C-774.29262409 6025.05049866 -777.88749755 6020.61732941 -781.50137156 6016.19463849 C-786.24968014 6010.37988717 -790.87118832 6004.48792717 -795.42324656 5998.51885724 C-798.14348182 5994.96983399 -800.94604198 5991.48902081 -803.75137156 5988.00713849 C-808.0455893 5982.67424216 -812.23822737 5977.27440844 -816.37637156 5971.81963849 C-820.64877398 5966.1892863 -825.01551852 5960.65634721 -829.50137156 5955.19463849 C-834.35388604 5949.28270564 -839.00408535 5943.25117719 -843.56460398 5937.11187482 C-846.75559153 5932.82029325 -849.99926224 5928.57894941 -853.31387156 5924.38213849 C-853.75908152 5923.81817365 -854.20429148 5923.2542088 -854.66299266 5922.67315412 C-855.59370083 5921.49467499 -856.52453079 5920.31629203 -857.45547312 5919.13799787 C-865.96660012 5908.34640432 -874.32417073 5897.44989094 -882.54556102 5886.43609357 C-886.51787249 5881.12401145 -890.55753088 5875.87652023 -894.67715281 5870.67828107 C-900.84441328 5862.87817996 -906.82638475 5854.9350165 -912.84072703 5847.01690412 C-914.92380526 5844.27695575 -917.01068652 5841.53995203 -919.09902781 5838.80401349 C-925.55599615 5830.34387299 -931.99585173 5821.87263407 -938.36611766 5813.34698224 C-942.47836984 5807.85110412 -946.64491581 5802.39756921 -950.81387156 5796.94463849 C-956.50589903 5789.49541315 -962.108727 5781.98807482 -967.64712352 5774.42413068 C-972.02630184 5768.4579882 -976.49946588 5762.56855353 -981.00137156 5756.69463849 C-986.45795547 5749.57192209 -991.78201388 5742.37387786 -996.99893016 5735.07427716 C-1001.26364396 5729.13193403 -1005.67592321 5723.31130381 -1010.12637156 5717.50713849 C-1014.93120103 5711.2388404 -1019.66805025 5704.94413829 -1024.22183055 5698.49126935 C-1027.64960993 5693.63838625 -1031.15992433 5688.84937626 -1034.68887156 5684.06963849 C-1035.28127635 5683.26711652 -1035.87368113 5682.46459455 -1036.48403758 5681.63775373 C-1038.30158966 5679.17701127 -1040.12010803 5676.71698565 -1041.93887156 5674.25713849 C-1049.3599803 5664.2174124 -1056.75083782 5654.15915527 -1064.04458445 5644.0264256 C-1067.97286126 5638.57606788 -1071.94608445 5633.16037614 -1075.93887156 5627.75713849 C-1082.12792521 5619.37938788 -1088.24074675 5610.94905885 -1094.32559031 5602.49541974 C-1095.95376412 5600.23647642 -1097.58624782 5597.98071188 -1099.22012156 5595.72588849 C-1105.00638487 5587.73762814 -1110.74584841 5579.72001148 -1116.41958445 5571.6514256 C-1120.05347948 5566.49123504 -1123.73575101 5561.36782974 -1127.43887156 5556.25713849 C-1133.17506164 5548.33800705 -1138.83022563 5540.36457005 -1144.45498484 5532.36602521 C-1146.94535942 5528.82672682 -1149.44246948 5525.29218665 -1151.93887156 5521.75713849 C-1152.93890351 5520.34049437 -1153.93890352 5518.92382771 -1154.93887156 5517.50713849 C-1155.43387156 5516.80588849 -1155.92887156 5516.10463849 -1156.43887156 5515.38213849 C-1157.93887156 5513.25713849 -1159.43887156 5511.13213849 -1160.93887156 5509.00713849 C-1161.43371043 5508.30613019 -1161.9285493 5507.60512189 -1162.43838328 5506.88287091 C-1163.44006199 5505.46379891 -1164.44168946 5504.04469074 -1165.44326609 5502.62554669 C-1167.91716651 5499.12038575 -1170.39190523 5495.61582334 -1172.86855906 5492.11260724 C-1184.61004197 5475.50032287 -1196.25501976 5458.82115203 -1207.86465281 5442.11651349 C-1210.56686944 5438.22863698 -1213.27273192 5434.3433407 -1215.98184031 5430.46026349 C-1224.45943149 5418.30373706 -1232.85085128 5406.09201617 -1241.18350047 5393.83575177 C-1243.88553598 5389.86650295 -1246.59996312 5385.90577384 -1249.31387156 5381.94463849 C-1262.28421058 5362.9948135 -1275.16056987 5343.98239693 -1288.00137156 5324.94463849 C-1288.63188426 5324.00998761 -1289.26239695 5323.07533673 -1289.91201609 5322.1123631 C-1302.15173564 5303.96639702 -1302.15173564 5303.96639702 -1308.03750437 5295.11602521 C-1309.8030618 5292.46134141 -1311.57358217 5289.81001395 -1313.34472483 5287.15905499 C-1320.1900037 5276.9076843 -1326.97044483 5266.61363969 -1333.75137156 5256.31963849 C-1334.38349559 5255.36025373 -1335.01561961 5254.40086896 -1335.66689891 5253.41241193 C-1374.89407437 5193.87557125 -1374.89407437 5193.87557125 -1393.13491648 5165.32842755 C-1396.92586082 5159.39652625 -1400.73082348 5153.47441072 -1404.56387156 5147.56963849 C-1414.67229198 5131.98701415 -1424.57604164 5116.27218864 -1434.48428172 5100.56182599 C-1435.92968945 5098.27168685 -1437.3772784 5095.98294192 -1438.82559031 5093.69463849 C-1450.77715427 5074.80655912 -1462.60078559 5055.83922332 -1474.35049266 5036.82500958 C-1475.94647553 5034.24484544 -1477.54569484 5031.66671531 -1479.14590281 5029.08916974 C-1487.15121588 5016.18996944 -1495.061686 5003.23490826 -1502.93887156 4990.25713849 C-1504.29429406 4988.02533957 -1505.64976427 4985.79356962 -1507.00527781 4983.56182599 C-1509.14028138 4980.04659205 -1511.27491431 4976.53113434 -1513.40835398 4973.01495099 C-1517.01278998 4967.07457988 -1520.62042001 4961.13620133 -1524.23574656 4955.20245099 C-1533.25103512 4940.40000522 -1542.14931479 4925.5331095 -1550.95937937 4910.60723615 C-1552.93548703 4907.26286648 -1554.91669229 4903.92157487 -1556.89980906 4900.58135724 C-1569.89005859 4878.70102545 -1582.79437158 4856.77249966 -1595.48379344 4834.71612287 C-1599.04881376 4828.5218527 -1602.6386869 4822.34313148 -1606.25308055 4816.17754865 C-1612.22865433 4805.9821066 -1618.07632407 4795.72384889 -1623.8297407 4785.4014256 C-1627.49307193 4778.83002037 -1631.19428603 4772.28256065 -1634.93887156 4765.75713849 C-1639.90245943 4757.10252899 -1644.79049451 4748.40724318 -1649.6554243 4739.69683576 C-1653.04432291 4733.63148538 -1656.45397584 4727.57872788 -1659.88638133 4721.53790021 C-1665.40271099 4711.82615792 -1670.78397988 4702.05157232 -1676.07510203 4692.21539044 C-1679.66928454 4685.55084126 -1683.36692279 4678.9545809 -1687.12637156 4672.38213849 C-1693.44956286 4661.30217619 -1699.40007284 4650.03537069 -1705.34243602 4638.74859357 C-1709.6049275 4630.6542694 -1713.90595878 4622.5861093 -1718.31387156 4614.56963849 C-1722.80657828 4606.39501403 -1727.14625112 4598.14928233 -1731.43594187 4589.86651349 C-1734.88939331 4583.21675855 -1738.44881241 4576.63272681 -1742.06387156 4570.06963849 C-1746.32933896 4562.31530818 -1750.38720399 4554.48492867 -1754.30850047 4546.55157208 C-1756.94446271 4541.22427462 -1759.65564909 4535.94629095 -1762.43887156 4530.69463849 C-1779.18322175 4499.07861365 -1795.12336185 4467.04809769 -1811.10941249 4435.04462558 C-1813.58007429 4430.09896343 -1816.05371004 4425.15479336 -1818.5280534 4420.21097231 C-1821.26258286 4414.74706592 -1823.99479825 4409.28200563 -1826.72610492 4403.81648755 C-1827.86355699 4401.54092761 -1829.001578 4399.26565195 -1830.14023989 4396.99069715 C-1837.17386993 4382.93488825 -1844.06820425 4368.82156002 -1850.81121176 4354.6240027 C-1852.92457795 4350.1882227 -1855.07524347 4345.77065987 -1857.22134227 4341.35064435 C-1862.87395371 4329.70486095 -1868.41151677 4318.01274758 -1873.83730906 4306.25909162 C-1877.91374371 4297.43659217 -1882.05957526 4288.64857046 -1886.22439402 4279.86749005 C-1893.68519842 4264.13167134 -1900.96282893 4248.32114035 -1908.1317274 4232.45051312 C-1910.33552603 4227.57674924 -1912.56147693 4222.71350583 -1914.79824656 4217.85479474 C-1923.91953662 4198.03102064 -1932.77690845 4178.10157634 -1941.50805491 4158.10303998 C-1944.15344427 4152.04597818 -1946.81354868 4145.99554906 -1949.48184031 4139.94854474 C-1989.99816007 4048.09046299 -2027.69202457 3954.96100311 -2099.87832469 3762.05352521 C-2101.5912652 3757.23017597 -2103.31514279 3752.41082376 -2105.04244822 3747.59260297 C-2117.0955923 3713.9562724 -2128.55943647 3680.12573802 -2139.93887156 3646.25713849 C-2140.55210296 3644.43404229 -2141.16537931 3642.61096122 -2141.77871531 3640.78790021 C-2144.93715914 3631.3944767 -2148.06499197 3621.99126737 -2151.17098826 3612.58038068 C-2151.98881087 3610.10604639 -2152.80958306 3607.63270321 -2153.63076609 3605.15948224 C-2182.52488098 3518.07528878 -2208.41483639 3430.00157539 -2326.93887156 2916.25713849 C-2327.05861087 2915.53493367 -2327.17835017 2914.81272885 -2327.30171794 2914.06863904 C-2339.39930824 2841.06451924 -2349.22242496 2767.72654226 -2326.93887156 1909.25713849 C-2326.72788829 1908.16675275 -2326.51690501 1907.07636701 -2326.2995283 1905.95293927 C-2319.94300013 1873.21368834 -2312.70087856 1840.69032425 -2304.93887156 1808.25713849 C-2304.56018931 1806.67186353 -2304.56018931 1806.67186353 -2304.17385691 1805.05456281 C-2279.32775731 1701.22240581 -2246.6159304 1599.16167364 -2187.93887156 1453.25713849 C-2187.65719126 1452.59643353 -2187.37551097 1451.93572858 -2187.0852949 1451.25500226 C-2172.92935482 1418.08869192 -2158.12275039 1385.19665305 -2142.44277781 1352.72198224 C-2141.99834016 1351.80141695 -2141.99834016 1351.80141695 -2141.54492396 1350.86225438 C-2135.18138743 1337.69039508 -2128.69467746 1324.58116173 -2122.15176219 1311.49761701 C-2120.92014802 1309.03447056 -2119.69141175 1306.56992188 -2118.46523875 1304.10406232 C-2111.00742551 1289.10766444 -2103.33481094 1274.26254421 -2095.22872752 1259.6038487 C-2093.34793924 1256.18202084 -2091.51326964 1252.73662599 -2089.68887156 1249.28448224 C-2089.37523158 1248.6916998 -2089.06159159 1248.09891736 -2088.73844737 1247.48817182 C-2087.80517548 1245.72370299 -2086.87202356 1243.95917072 -2085.93887156 1242.19463849 C-2079.99151981 1230.9907338 -2073.8680276 1219.90672383 -2067.49453562 1208.93877912 C-2065.80927546 1206.03374181 -2064.13499688 1203.12255703 -2062.46230906 1200.21026349 C-2036.54329843 1155.11063323 -2036.54329843 1155.11063323 -2025.20059031 1137.25811505 C-2023.22187896 1134.12005038 -2021.28012988 1130.95935508 -2019.33389109 1127.8010838 C-2014.21745044 1119.49996638 -2009.04898957 1111.23395967 -2003.81387156 1103.00713849 C-2003.28890086 1102.18197736 -2002.76393016 1101.35681623 -2002.22305125 1100.50665021 C-2000.46673659 1097.75352276 -1998.70408711 1095.00456852 -1996.93887156 1092.25713849 C-1996.55461009 1091.65886243 -1996.17034861 1091.06058637 -1995.77444285 1090.44418073 C-1988.81899037 1079.62532003 -1981.74557427 1068.88837173 -1974.60488719 1058.19097638 C-1972.93844338 1055.6939969 -1971.2744841 1053.19537486 -1969.61074656 1050.69659162 C-1962.80733398 1040.48915093 -1955.92590652 1030.3397764 -1948.93887156 1020.25713849 C-1948.29208445 1019.32345441 -1947.64529734 1018.38977033 -1946.97891062 1017.42779279 C-1945.34505851 1015.07605705 -1943.70636864 1012.72784302 -1942.06387156 1010.38213849 C-1941.18807444 1009.13134503 -1941.18807444 1009.13134503 -1940.29458445 1007.85528302 C-1934.78273579 1000.00284731 -1929.17197562 992.22428558 -1923.53457469 984.46172833 C-1921.948175 982.26999192 -1920.37173385 980.07144041 -1918.79824656 977.87041974 C-1912.33728396 968.84604276 -1905.71404788 959.9651127 -1898.9601118 951.15777326 C-1894.46235765 945.28482011 -1890.05169107 939.35582652 -1885.68887156 933.38213849 C-1880.10956123 925.75729035 -1874.30414592 918.35388335 -1868.35488719 911.01592755 C-1866.0401277 908.14083663 -1863.77267299 905.22908897 -1861.50137156 902.31963849 C-1856.99711597 896.56107454 -1852.40033181 890.88215703 -1847.7750532 885.2205174 C-1844.27053999 880.9225197 -1840.83738182 876.57666644 -1837.43887156 872.19463849 C-1833.02186072 866.51504608 -1828.37521169 861.06627614 -1823.63638133 855.65362287 C-1819.73692343 851.19709955 -1815.96500573 846.65434049 -1812.23574656 842.05401349 C-1808.07290502 836.98497514 -1803.77360683 832.03262414 -1799.49160594 827.0642674 C-1797.95241174 825.27289705 -1796.42100037 823.47517962 -1794.89199656 821.67510724 C-1789.18799751 814.96793394 -1783.37347686 808.39337486 -1777.39590281 801.92901349 C-1774.77109398 799.07469037 -1772.21448479 796.16998802 -1769.67324656 793.24151349 C-1766.89964093 790.06810885 -1764.07134297 786.94437915 -1761.24746531 783.81573224 C-1759.75767876 782.16461516 -1758.27050279 780.51113705 -1756.78652781 778.85479474 C-1750.57412197 771.92341245 -1744.26980495 765.08006524 -1737.93887156 758.25713849 C-1737.34815867 757.61985822 -1736.75744578 756.98257794 -1736.1488325 756.32598615 C-1734.30971629 754.34311284 -1732.46839678 752.36230943 -1730.62637156 750.38213849 C-1730.06409861 749.77603742 -1729.50182566 749.16993634 -1728.92251414 748.54546857 C-1726.1544545 745.57541429 -1723.35145041 742.66053878 -1720.45840281 739.81182599 C-1718.07346417 737.44836809 -1715.82986765 735.01822324 -1713.64503306 732.46918988 C-1710.27632087 728.59829877 -1706.75442599 724.93080547 -1703.12075633 721.30962873 C-1702.47909526 720.66621533 -1701.83743418 720.02280194 -1701.17632884 719.35989118 C-1699.08013221 717.25933691 -1696.98035055 715.16241074 -1694.88027781 713.06573224 C-1693.40714511 711.59192475 -1691.93416079 710.11796895 -1690.46131724 708.6438725 C-1687.38408665 705.56517318 -1684.30506912 702.48827538 -1681.22476023 699.41265607 C-1677.29318484 695.48677743 -1673.36611663 691.55642579 -1669.44038314 687.62470651 C-1666.40259416 684.58328962 -1663.36240966 681.54427624 -1660.32151431 678.50596547 C-1658.87322538 677.05833965 -1657.42566788 675.60998164 -1655.97888201 674.16085362 C-1653.95047058 672.12987888 -1651.9188401 670.10217715 -1649.88638133 668.07525373 C-1649.29964137 667.48648953 -1648.71290141 666.89772534 -1648.10838145 666.29111981 C-1644.44321393 662.64425656 -1640.65008482 659.19618275 -1636.72843665 655.82639909 C-1634.1701696 653.58306762 -1631.81628536 651.19183937 -1629.43887156 648.75713849 C-1625.78326276 645.01344273 -1622.00429967 641.5385793 -1618.04922312 638.1135838 C-1614.46711239 634.96245354 -1611.02285809 631.66708796 -1607.56387156 628.38213849 C-1601.43056458 622.58362916 -1595.24562915 616.86677607 -1588.93887156 611.25713849 C-1587.22990145 609.71617773 -1585.52157793 608.17449962 -1583.81387156 606.63213849 C-1578.49204638 601.84579107 -1573.12374622 597.12049089 -1567.68105906 592.47198224 C-1566.4753048 591.4420637 -1565.26957634 590.41211496 -1564.06387156 589.38213849 C-1563.4553535 588.86248517 -1562.84683543 588.34283185 -1562.21987742 587.80743146 C-1558.68263299 584.77821316 -1555.19494579 581.70565266 -1551.75137156 578.56963849 C-1547.59164947 574.79545162 -1543.28853007 571.23927737 -1538.92324656 567.70635724 C-1535.55125263 564.93902714 -1532.24235006 562.10552083 -1528.93887156 559.25713849 C-1524.00512915 555.00858275 -1519.0255571 550.82971263 -1513.97012156 546.72588849 C-1511.62840927 544.81872074 -1509.29627469 542.90189051 -1506.97012156 540.97588849 C-1499.19193494 534.53791328 -1491.3649078 528.18212251 -1483.40371531 521.97198224 C-1479.70050283 519.0802012 -1476.03866134 516.13795113 -1472.37637156 513.19463849 C-1465.63591201 507.78562774 -1458.80521107 502.50486199 -1451.93887156 497.25713849 C-1449.93849944 495.71595469 -1447.93850903 494.17427536 -1445.93887156 492.63213849 C-1443.60681416 490.83880781 -1441.27286017 489.04795466 -1438.93887156 487.25713849 C-1438.14883738 486.65031232 -1437.3588032 486.04348615 -1436.54482859 485.4182713 C-1426.39179505 477.62583235 -1416.21004917 469.91196251 -1405.74795359 462.53936505 C-1402.21069089 460.03225254 -1398.70179175 457.48568451 -1395.18887156 454.94463849 C-1394.43211131 454.39799542 -1393.67535105 453.85135236 -1392.89565867 453.28814435 C-1389.04430583 450.50563866 -1385.19633276 447.71858989 -1381.35293406 444.92510724 C-1372.32410498 438.36987685 -1363.22294796 431.94348773 -1354.000395 425.66387677 C-1351.88475879 424.22021313 -1349.77455091 422.76890138 -1347.66543406 421.31573224 C-1296.7536986 386.27778679 -1244.49355059 353.10901574 -1190.93887156 322.25713849 C-1189.85170848 321.62984845 -1188.76454539 321.00255841 -1187.64443797 320.35625958 C-1127.42751035 285.6492709 -1065.79385857 252.59581313 -1002.48281687 223.87530255 C-998.5595115 222.08392283 -994.65110002 220.26224456 -990.74355906 218.43682599 C-908.83317972 180.25100303 -824.1796884 147.5693019 -731.3363325 117.04107404 C-728.89988724 116.24439117 -726.4643083 115.44509448 -724.02871531 114.64581037 C-619.30836189 80.34975775 -511.69892498 54.07303769 -141.12637156 4.00713849 C-139.93346507 3.93000623 -138.74055857 3.85287396 -137.5115034 3.77340436 C-128.32429837 3.18785763 -119.13395478 2.69766628 -109.93887156 2.25713849 C-108.61128196 2.19302022 -108.61128196 2.19302022 -107.25687236 2.12760663 C-71.50241144 0.41733606 -35.7907575 -0.06388423 0 0 Z M-522.93887156 1289.25713849 C-524.36272166 1289.92060285 -524.36272166 1289.92060285 -525.81533641 1290.59747052 C-537.44284691 1296.02556184 -548.88478369 1301.72098822 -560.19180125 1307.78790021 C-563.29195489 1309.44598096 -566.40040947 1311.0879369 -569.50918406 1312.72979474 C-584.87599691 1320.87024839 -599.99209394 1329.36377931 -614.93887156 1338.25713849 C-616.66014757 1339.27419785 -618.38149928 1340.29112912 -620.10293406 1341.30791974 C-661.75678954 1366.00692471 -701.65506629 1393.62671899 -739.93887156 1423.25713849 C-740.54005809 1423.72184552 -741.14124461 1424.18655255 -741.76064891 1424.66534162 C-755.58169056 1435.37096875 -769.03134945 1446.54287017 -782.33096141 1457.88750958 C-784.01618276 1459.3229927 -785.70593965 1460.75302339 -787.39590281 1462.18291974 C-793.83616789 1467.64865348 -800.15968963 1473.2108528 -806.32559031 1478.98540998 C-809.05877335 1481.5423604 -811.82810206 1484.04279664 -814.656645 1486.49419904 C-828.61465079 1498.68971172 -841.69634965 1511.85415483 -854.78115672 1524.96905255 C-856.65242382 1526.84393151 -858.52497623 1528.71738353 -860.40029734 1530.58819318 C-863.15804283 1533.33973934 -865.91228046 1536.09474851 -868.66543406 1538.85088849 C-869.90929377 1540.09171185 -869.90929377 1540.09171185 -871.17828196 1541.35760236 C-875.40752612 1545.6038188 -879.49395567 1549.9152127 -883.39184397 1554.46856427 C-886.14560505 1557.65228646 -889.05228028 1560.69428208 -891.93887156 1563.75713849 C-896.70543694 1568.84317709 -901.41309717 1573.95440712 -905.93887156 1579.25713849 C-906.83702807 1580.30165101 -907.7354959 1581.34589586 -908.63418406 1582.38995099 C-911.22923865 1585.4074465 -913.81680251 1588.43125951 -916.40127391 1591.45782208 C-917.39266542 1592.61796109 -918.38510061 1593.77720944 -919.37881297 1594.93536115 C-924.96813925 1601.45003362 -930.41087034 1608.0499995 -935.6800825 1614.82671857 C-938.60863183 1618.58735923 -941.59580833 1622.29138378 -944.6266157 1625.97002912 C-951.80818306 1634.69798054 -958.53530669 1643.71164997 -965.18154734 1652.85137677 C-966.89943666 1655.20315245 -968.63259413 1657.54268476 -970.37246531 1659.87823224 C-984.98108742 1679.50389393 -998.72501256 1699.66959198 -1011.93887156 1720.25713849 C-1012.4536909 1721.05506818 -1012.96851023 1721.85299787 -1013.49893016 1722.67510724 C-1022.70864458 1736.96426575 -1031.36157175 1751.5828025 -1039.93887156 1766.25713849 C-1040.48043895 1767.1828465 -1041.02200633 1768.10855451 -1041.57998484 1769.06231427 C-1064.91474523 1809.07869057 -1085.80957213 1850.63337575 -1103.93887156 1893.25713849 C-1104.26353404 1894.01818891 -1104.58819651 1894.77923932 -1104.92269725 1895.56335187 C-1127.5947123 1948.76443429 -1146.06710088 2003.38880768 -1160.93887156 2059.25713849 C-1161.14620921 2060.03321454 -1161.35354686 2060.80929059 -1161.56716746 2061.6088841 C-1181.40894488 2136.00654317 -1192.88839343 2212.47730917 -1197.93887156 2289.25713849 C-1197.9994575 2290.17742841 -1198.06004344 2291.09771832 -1198.12246531 2292.04589581 C-1204.35956943 2388.6452115 -1197.95858884 2486.03222447 -1096.93887156 2857.25713849 C-1096.43549266 2858.37137189 -1095.93211375 2859.48560529 -1095.41348094 2860.63360333 C-1081.77822156 2890.69156119 -1067.54838927 2920.52515293 -1051.52773875 2949.39141583 C-1049.89944837 2952.32824319 -1048.28238638 2955.2710873 -1046.66543406 2958.21416974 C-1014.15216371 3017.11658729 -975.98571305 3073.50895597 -933.33584422 3125.54424787 C-931.47372925 3127.82747028 -929.64299927 3130.13494567 -927.81387156 3132.44463849 C-924.32003049 3136.8284896 -920.70815255 3141.10465985 -917.07290477 3145.37115216 C-914.16206367 3148.7921562 -911.31509762 3152.25527291 -908.50137156 3155.75713849 C-904.12552911 3161.13856053 -899.44578341 3166.19712418 -894.71621531 3171.26495099 C-892.55809437 3173.57954111 -890.44713347 3175.92609596 -888.37637156 3178.31963849 C-883.67952034 3183.73734938 -878.80606208 3188.99305702 -873.93887156 3194.25713849 C-873.14192126 3195.11943822 -873.14192126 3195.11943822 -872.32887095 3195.99915814 C-862.99675599 3206.07575678 -853.44558271 3215.90879707 -843.7203657 3225.60601544 C-841.47495576 3227.84599035 -839.23504317 3230.09136546 -836.99551219 3232.33721662 C-835.5407551 3233.79131391 -834.08568838 3235.24510152 -832.63027781 3236.69854474 C-831.97491542 3237.35593137 -831.31955302 3238.013318 -830.64433116 3238.69062543 C-826.81070493 3242.50512157 -822.87072644 3246.13474923 -818.76026744 3249.64982343 C-816.90770271 3251.28464386 -815.16825619 3252.99323015 -813.43887156 3254.75713849 C-810.49286942 3257.74948224 -807.40904149 3260.51038022 -804.22793406 3263.24932599 C-802.00314017 3265.20076636 -799.82716655 3267.19897497 -797.6578657 3269.21172833 C-792.44833562 3274.04339516 -787.11432811 3278.62898943 -781.57559031 3283.08526349 C-779.01467128 3285.19470198 -776.56763702 3287.38601497 -774.12637156 3289.63213849 C-769.69336728 3293.67234493 -765.05645631 3297.36346885 -760.31802195 3301.03228498 C-756.30466034 3304.15054533 -752.41227667 3307.375814 -748.56387156 3310.69463849 C-741.9026996 3316.41430205 -734.8896347 3321.61815536 -727.8363325 3326.8401463 C-725.04943387 3328.92135573 -722.30871536 3331.05822355 -719.56387156 3333.19463849 C-711.50068177 3339.41623555 -703.22412939 3345.33628029 -694.93887156 3351.25713849 C-694.25341258 3351.74939923 -693.56795359 3352.24165998 -692.86172312 3352.74883771 C-657.40680219 3378.19812831 -620.25540961 3401.61458393 -581.97939891 3422.59063458 C-579.99565332 3423.67791959 -578.01409599 3424.76920945 -576.03506297 3425.86504865 C-544.81498321 3443.14504885 -512.75747445 3459.24072359 -479.93887156 3473.25713849 C-478.58252089 3473.84015061 -477.22624091 3474.42332721 -475.87002391 3475.00665021 C-440.53421222 3490.17202772 -404.56720802 3503.56039631 -367.93887156 3515.25713849 C-367.21478099 3515.48918988 -366.49069041 3515.72124127 -365.7446577 3515.96032453 C-280.82763605 3543.14578556 -192.59777756 3560.06088586 -93.00137156 3568.00713849 C-92.19621104 3568.06639508 -91.39105052 3568.12565167 -90.56149119 3568.18670392 C-85.0229847 3568.58732594 -79.4824334 3568.93467935 -73.93887156 3569.25713849 C-73.14849498 3569.30552869 -72.35811839 3569.35391889 -71.543791 3569.40377545 C-52.72290451 3570.52354661 -33.87685923 3570.44456338 -15.03018016 3570.44244123 C-11.3312365 3570.4423606 -7.63241838 3570.44921614 -3.93350047 3570.46294904 C21.79538059 3570.5568246 47.38453821 3569.93095118 73.06112844 3568.25713849 C74.80326619 3568.14358518 74.80326619 3568.14358518 76.58059865 3568.02773786 C83.05978662 3567.59077635 89.52985013 3567.07680523 95.99862844 3566.50713849 C96.95262532 3566.42443707 97.90662221 3566.34173566 98.8895281 3566.25652814 C188.38783652 3558.42753427 277.59367205 3541.08974584 363.06112844 3513.25713849 C364.52461721 3512.78114209 364.52461721 3512.78114209 366.01767141 3512.2955296 C441.57175638 3487.65734611 516.81771117 3457.09416205 585.47519094 3416.75518537 C589.35047444 3414.51021373 593.27747957 3412.36107507 597.19931203 3410.19878888 C611.43605757 3402.3314595 625.28475612 3393.90066591 639.06112844 3385.25713849 C640.01084523 3384.66433087 640.96056203 3384.07152326 641.93905813 3383.46075177 C687.48736841 3355.00309228 731.30225682 3323.14941009 772.22104055 3288.34527326 C775.67252703 3285.41430188 779.16331106 3282.53999098 782.68612844 3279.69463849 C787.44632897 3275.82134577 791.98917627 3271.74953857 796.50644094 3267.59698224 C798.68810658 3265.59879001 800.89124152 3263.6356496 803.12362844 3261.69463849 C814.64294041 3251.66770702 826.14085496 3241.46550346 836.76815969 3230.48760724 C838.69475759 3228.61352308 840.65703442 3226.86670452 842.69394094 3225.11651349 C847.72943014 3220.74252757 852.41976777 3216.04476756 857.12362844 3211.31963849 C857.98278859 3210.46434552 858.84194875 3209.60905255 859.72714406 3208.72784162 C864.15725043 3204.29096656 868.42280825 3199.78395776 872.50814992 3195.02837873 C874.74571558 3192.47633677 877.13250589 3190.12861698 879.56112844 3187.75713849 C883.22413798 3184.14305992 886.72278493 3180.45452222 890.06112844 3176.53838849 C892.23034517 3174.06412565 894.47012158 3171.66769572 896.72250539 3169.26934552 C902.01009246 3163.63899565 907.06395876 3157.92425306 911.89315969 3151.88995099 C914.15145307 3149.14744695 916.51894177 3146.54776259 918.93612844 3143.94463849 C923.17733824 3139.33633788 927.05590872 3134.54142954 930.88266164 3129.59209943 C934.02903001 3125.53405272 937.27977789 3121.59108449 940.62362844 3117.69463849 C945.46420687 3112.03146702 950.04803599 3106.19726357 954.54306203 3100.25665021 C956.31825699 3097.91846321 958.10548205 3095.58970134 959.89315969 3093.26104474 C967.04080448 3083.93839761 974.11409171 3074.58611819 980.85702688 3064.96612287 C982.10435325 3063.1957894 983.36638554 3061.43671519 984.63144094 3059.67901349 C999.17044255 3039.39984457 1012.98115447 3018.50460766 1026.06112844 2997.25713849 C1027.01318166 2995.71606427 1027.01318166 2995.71606427 1027.98446828 2994.14385724 C1038.09836895 2977.7421703 1047.82165533 2961.17135629 1057.06112844 2944.25713849 C1057.64007863 2943.20220197 1058.21902883 2942.14726544 1058.81552297 2941.06036115 C1075.56286949 2910.47246008 1091.22907715 2879.27481745 1105.06112844 2847.25713849 C1105.35678701 2846.57343183 1105.65244558 2845.88972516 1105.9570635 2845.18530011 C1121.48139757 2809.21407988 1135.12630722 2772.56963 1147.06112844 2735.25713849 C1147.30778249 2734.48923993 1147.55443654 2733.72134137 1147.80856496 2732.93017316 C1174.93231162 2648.4451148 1192.24173762 2560.63637526 1199.74862844 2460.81963849 C1199.84003606 2459.51941754 1199.84003606 2459.51941754 1199.9332903 2458.19292951 C1200.34762846 2452.21642412 1200.71791345 2446.23812802 1201.06112844 2440.25713849 C1201.11058614 2439.42177564 1201.16004384 2438.58641278 1201.21100026 2437.7257359 C1202.31623831 2418.47841413 1202.26212653 2399.21650633 1202.24862844 2379.94463849 C1202.24836156 2379.09108525 1202.24809469 2378.23753201 1202.24781972 2377.35811353 C1202.23745797 2350.94377145 1202.01637623 2324.61114486 1200.06112844 2298.25713849 C1199.99560781 2297.35523786 1199.93008718 2296.45333722 1199.86258107 2295.52410626 C1192.78021585 2198.43901879 1175.94904304 2102.02557226 1146.06112844 2009.25713849 C1145.68761251 2008.09686139 1145.68761251 2008.09686139 1145.3065508 2006.91314435 C1141.88772477 1996.31901454 1138.35931888 1985.76419097 1134.74093801 1975.23663068 C1134.09876 1973.36671534 1133.46020215 1971.49555789 1132.82187063 1969.62432599 C1112.58823838 1910.55490252 1086.73714636 1852.66513957 1056.57138234 1798.01299787 C1055.10554541 1795.33818905 1053.66332902 1792.65212956 1052.22909719 1789.96026349 C1044.98260539 1776.40520792 1037.11833501 1763.27852097 1029.07434255 1750.18876386 C1026.99758409 1746.8040083 1024.95201783 1743.40341657 1022.94003469 1739.97979474 C1014.54329909 1725.69283325 1005.34841667 1711.97322519 996.06112844 1698.25713849 C995.44527883 1697.34448224 994.82942922 1696.43182599 994.1949175 1695.49151349 C986.37667829 1683.91288324 978.30790964 1672.53388723 970.06112844 1661.25713849 C969.48185598 1660.46243146 968.90258352 1659.66772443 968.30575734 1658.84893537 C957.14972023 1643.55166514 945.51393392 1628.72630554 933.53769094 1614.06573224 C932.23065303 1612.46478369 930.92689488 1610.86115873 929.62362844 1609.25713849 C924.33261217 1602.75674707 918.94554913 1596.34240538 913.51132375 1589.96172833 C912.04309805 1588.2359452 910.57939311 1586.50639577 909.11581594 1584.77666974 C903.1829576 1577.78638379 897.1007994 1570.96834199 890.85019094 1564.26104474 C888.44977218 1561.68453036 886.09201713 1559.07327113 883.74862844 1556.44463849 C871.94252259 1543.3042331 859.6388484 1530.67263319 847.1336382 1518.19927716 C844.59852167 1515.66958545 842.06888207 1513.13450316 839.53964406 1510.59893537 C837.90259526 1508.96254647 836.26523678 1507.32646732 834.62753469 1505.69073224 C833.51324842 1504.57340962 833.51324842 1504.57340962 832.37645131 1503.43351483 C828.30587455 1499.38096514 824.14150291 1495.5022292 819.79121572 1491.75141644 C817.83429032 1490.0612182 815.93803486 1488.31684112 814.06112844 1486.53838849 C813.40112844 1485.9157713 812.74112844 1485.29315412 812.06112844 1484.65166974 C810.7277951 1483.38864891 809.39446177 1482.12562807 808.06112844 1480.86260724 C803.48769579 1476.54821667 798.82257946 1472.36288637 794.06112844 1468.25713849 C793.49490773 1467.76874494 792.92868703 1467.28035138 792.34530813 1466.77715802 C790.71126517 1465.37188108 789.07432074 1463.97007545 787.43612844 1462.56963849 C786.21992 1461.5293471 785.00377608 1460.48898026 783.78769094 1459.44854474 C782.86585012 1458.65988019 782.86585012 1458.65988019 781.92538625 1457.85528302 C780.07943564 1456.27283243 778.23764434 1454.68567645 776.39706594 1453.09698224 C769.7241567 1447.34247937 762.99477684 1441.69754635 756.06112844 1436.25713849 C754.52972219 1435.0486424 754.52972219 1435.0486424 752.96737844 1433.81573224 C749.99757532 1431.47391467 747.0214212 1429.14030757 744.04306203 1426.80938458 C742.68832282 1425.74835577 741.33452405 1424.68612537 739.98153859 1423.62286115 C705.86727007 1396.8193462 670.07250362 1371.90950179 633.06112844 1349.25713849 C632.30251516 1348.79259259 631.54390188 1348.32804669 630.76230031 1347.84942365 C607.93712453 1333.9241878 584.7033019 1320.74194382 561.06112844 1308.25713849 C559.94463918 1307.66465314 558.82814992 1307.07216779 557.67782766 1306.46172833 C483.43161355 1267.1474551 404.38768762 1236.30553147 300.06112844 1208.25713849 C299.22468801 1208.04357709 298.38824758 1207.83001569 297.52646047 1207.60998273 C207.93003672 1184.80508016 115.75886022 1173.17382324 -522.93887156 1289.25713849 Z " fill="#989898" transform="translate(2371.938871562481,-0.2571384906768799)"/>
</svg>
